<svg xmlns="http://www.w3.org/2000/svg" width="64" height="64" viewBox="0 0 64 64" fill="none">
	<defs>
		<linearGradient id="smartCampusGradient" x1="10" y1="8" x2="54" y2="56" gradientUnits="userSpaceOnUse">
			<stop offset="0" stop-color="#3B82F6" />
			<stop offset="1" stop-color="#4F46E5" />
		</linearGradient>
	</defs>
	<rect x="4" y="4" width="56" height="56" rx="14" fill="url(#smartCampusGradient)" />
	<g fill="none" stroke="#FFFFFF" stroke-width="3" stroke-linecap="round" stroke-linejoin="round" transform="translate(8 8) scale(2)">
		<path d="M21.42 10.922a1 1 0 0 0-.019-1.838L12.83 5.18a2 2 0 0 0-1.66 0L2.6 9.08a1 1 0 0 0 0 1.832l8.57 3.908a2 2 0 0 0 1.66 0z" />
		<path d="M22 10v6" />
		<path d="M6 12.5V16a6 3 0 0 0 12 0v-3.5" />
	</g>
</svg>